# xmcd
#
# Track frame offsets:
#	150
#	16834
#	32354
#	47080
#	59734
#	75295
#	90097
#	104454
#	120294
#	140347
#	153672
#	168812
#	186169
#	202886
#	215736
#	232263
#	247044
#	263358
#	283610
#	299968
#	315302
#	330583
#	345207
#
# Disc length: 4804 seconds
#
# Revision: 0
# Processed by: cddbd v1.5.2PL0 Copyright (c) Steve Scherf et al.
# Submitted via: EasyCDDAExtractor 16.0.9.1
#
DISCID=3912c217
DTITLE=Various Artist - Viva Neu Bei Boom Boom Vol.18
DYEAR=2000
DGENRE=Dance
TTITLE0=Sash! - Rock The Block (Radio Mix)
TTITLE1=Alice Deejay - Will I Ever (Radio Mix)
TTITLE2=Members Of Mayday - Datapop (Radio Cut)
TTITLE3=Shaft - Mambo Italiano
TTITLE4=Britney Spears - Oops! I Did It Again (Radio Mix)
TTITLE5=Da Cloot - Get Uppa! (Radio Mix)
TTITLE6=Mambo Rebels - Dixle (Radio Edit)
TTITLE7=Lightforce - Fantasy (Radio Edit)
TTITLE8=Destiny's Child - Say My Name (Long Version)
TTITLE9=Gum - The Locomotion (Radio Cut)
TTITLE10=E-Rotic - Don't Make Me Wet (Radio Edit)
TTITLE11=Y-2-K - Once In A Life Time (Radio Mix)
TTITLE12=Backstreet Boys - The One (Radio Mix)
TTITLE13=Bomfunk Mc's - Freestyler (Radio Edit)
TTITLE14=DJ Aligator - The Whistle Song (Radio Mix)
TTITLE15=Fm Factory - Back! (Extended Mix)
TTITLE16=Patric Lucas - The Eve Of The war 2000 (Radio Edit)
TTITLE17=Double Blue - In The Army Now (Dance Mix)
TTITLE18=N.Y.C.C. - No Sleep (Single Version)
TTITLE19=Yellow Mellow - Touch Bu Touch (Radio Mix)
TTITLE20=Modern Talking feat. Eric Singleton - Don't Take Away My Heart (Radio
TTITLE20=Mix)
TTITLE21=ATB - The Summer (Club Mix)
TTITLE22=DJ Mendez - Razor
EXTD=
EXTT0=
EXTT1=
EXTT2=
EXTT3=
EXTT4=
EXTT5=
EXTT6=
EXTT7=
EXTT8=
EXTT9=
EXTT10=
EXTT11=
EXTT12=
EXTT13=
EXTT14=
EXTT15=
EXTT16=
EXTT17=
EXTT18=
EXTT19=
EXTT20=
EXTT21=
EXTT22=
PLAYORDER=
